<?xml version="1.0" standalone="no"?>
<!DOCTYPE svg PUBLIC "-//W3C//DTD SVG 20010904//EN"
 "http://www.w3.org/TR/2001/REC-SVG-20010904/DTD/svg10.dtd">
<svg version="1.0" xmlns="http://www.w3.org/2000/svg"
 width="2000.000000pt" height="1429.000000pt" viewBox="0 0 2000.000000 1429.000000"
 preserveAspectRatio="xMidYMid meet">

<g transform="translate(0.000000,1429.000000) scale(0.100000,-0.100000)"
fill="#000000" stroke="none">
<path d="M11040 10648 c-19 -13 -42 -39 -51 -58 -24 -53 -183 -1203 -181
-1313 2 -115 23 -201 80 -317 40 -82 59 -108 141 -190 74 -73 115 -105 179
-139 77 -40 83 -45 78 -70 -3 -14 -55 -368 -116 -786 -175 -1214 -280 -1937
-286 -1982 l-6 -43 -819 0 c-647 0 -821 3 -824 13 -2 6 -27 172 -55 367 -28
195 -80 553 -115 795 -123 843 -265 1829 -265 1842 0 11 181 13 968 13 l968 0
-47 95 c-26 53 -55 125 -64 160 l-18 65 -1095 0 -1094 0 6 -32 c3 -18 46 -314
96 -658 50 -344 133 -920 186 -1280 52 -360 121 -839 154 -1065 32 -225 66
-456 75 -512 8 -57 15 -107 15 -113 0 -7 370 -10 1104 -10 l1104 0 6 28 c3 15
41 277 85 582 45 305 144 991 221 1523 77 532 140 971 140 975 0 4 39 15 86
24 256 48 478 242 564 493 26 76 11 -26 194 1291 6 42 -25 106 -65 135 -68 48
-176 23 -214 -50 -8 -16 -46 -254 -85 -531 -39 -280 -77 -515 -85 -530 -35
-67 -116 -94 -189 -62 -56 25 -86 70 -86 131 0 39 74 596 115 862 27 172 15
225 -57 269 -83 50 -207 -7 -222 -103 -3 -18 -35 -246 -72 -507 -36 -261 -72
-487 -80 -501 -7 -15 -27 -38 -44 -53 -58 -48 -177 -28 -210 35 -29 54 -28 79
26 461 81 575 88 632 80 662 -4 15 -22 43 -40 63 -29 33 -39 37 -92 41 -50 3
-64 0 -94 -20z"/>
<path d="M10800 8460 c-102 -27 -208 -80 -424 -209 -276 -165 -387 -217 -530
-247 -92 -20 -232 -19 -326 1 -94 20 -252 96 -347 169 -53 40 -73 50 -73 38 0
-9 14 -107 30 -217 39 -259 29 -188 272 -1877 l21 -148 634 0 c348 0 633 2
633 5 0 3 36 254 80 558 211 1444 280 1931 275 1935 -3 3 -42 7 -88 9 -59 2
-103 -3 -157 -17z m-847 -764 c65 -20 104 -51 132 -107 94 -185 -97 -376 -283
-283 -138 69 -152 268 -24 358 22 16 58 32 79 36 21 4 41 8 44 9 3 0 26 -5 52
-13z m317 -681 c69 -36 94 -106 61 -179 -16 -37 -29 -51 -63 -66 -52 -24 -73
-24 -118 -2 -71 35 -100 121 -62 190 35 65 116 91 182 57z m-222 -559 c83 -43
70 -173 -19 -202 -60 -20 -131 18 -144 77 -21 94 78 169 163 125z"/>
<path d="M7363 5820 c-17 -6 -43 -24 -57 -41 -59 -70 -12 -149 104 -174 64
-13 90 -33 90 -65 0 -35 -23 -50 -78 -50 -38 0 -72 22 -72 47 0 18 -37 44 -53
37 -24 -9 -28 -32 -13 -69 21 -50 68 -75 139 -75 102 0 157 43 157 124 0 55
-33 84 -131 116 -71 23 -85 30 -87 50 -5 30 21 50 64 50 26 0 39 -8 61 -35 32
-40 57 -45 73 -14 13 24 -5 59 -44 84 -30 20 -111 27 -153 15z"/>
<path d="M6943 5814 c-10 -4 -13 -51 -13 -184 0 -167 1 -180 19 -190 11 -5 71
-10 135 -10 89 0 118 3 130 15 19 20 10 44 -19 51 -12 3 -59 4 -104 2 l-81 -3
0 58 0 57 95 0 c94 0 95 0 95 24 0 19 -7 26 -29 31 -15 3 -32 5 -37 4 -5 -1
-35 -1 -66 0 l-58 1 0 45 0 44 103 3 c101 3 102 3 102 28 l0 25 -130 2 c-71 1
-136 -1 -142 -3z"/>
<path d="M7623 5814 c-18 -8 -16 -43 2 -50 9 -4 37 -7 63 -8 l47 -1 5 -160 5
-160 30 0 30 0 3 157 3 157 32 5 c17 3 46 7 62 8 25 3 30 7 30 28 l0 25 -150
2 c-82 1 -156 -1 -162 -3z"/>
<path d="M7997 5813 c-4 -3 -7 -86 -7 -184 0 -214 -6 -205 134 -196 66 4 97
11 115 25 111 82 102 299 -15 348 -34 14 -215 20 -227 7z m203 -78 c43 -39 49
-153 10 -205 -15 -19 -30 -25 -80 -30 -33 -3 -62 -5 -63 -4 -1 1 -1 62 1 134
l3 132 54 -4 c34 -3 62 -12 75 -23z"/>
<path d="M11914 5801 c-37 -23 -62 -76 -47 -100 18 -28 46 -19 65 21 22 45 56
58 93 34 18 -12 25 -25 25 -48 0 -26 -14 -45 -89 -117 -137 -131 -134 -154 19
-159 126 -5 150 1 150 32 0 29 -21 36 -110 36 l-65 0 81 78 c56 52 84 87 88
108 10 44 -15 99 -53 118 -41 22 -119 20 -157 -3z"/>
<path d="M12231 5794 c-37 -31 -51 -77 -51 -173 0 -127 47 -191 139 -191 80 0
131 76 131 197 0 71 -18 123 -55 160 -29 29 -40 33 -83 33 -40 0 -57 -6 -81
-26z m117 -42 c38 -38 34 -231 -5 -259 -59 -44 -103 43 -90 174 10 91 51 129
95 85z"/>
<path d="M12565 5809 c-42 -25 -68 -81 -53 -111 13 -27 36 -21 58 15 28 48 38
57 65 57 33 0 55 -25 55 -63 0 -26 -14 -45 -89 -117 -96 -91 -112 -118 -86
-144 13 -13 38 -16 120 -16 120 0 135 4 135 35 0 28 -22 35 -110 35 l-65 0 82
78 c86 81 99 104 89 156 -10 54 -47 80 -119 83 -36 2 -70 -1 -82 -8z"/>
<path d="M12875 5798 c-35 -27 -56 -77 -44 -100 15 -28 37 -21 63 21 38 60 91
67 114 16 17 -38 2 -63 -86 -142 -86 -78 -112 -122 -86 -148 22 -22 226 -22
248 0 8 9 13 22 9 30 -5 14 -39 28 -59 24 -5 -1 -34 -1 -64 0 l-54 1 81 78
c45 42 84 88 88 100 12 40 -4 89 -36 116 -41 35 -132 37 -174 4z"/>
<path d="M6447 4865 c-171 -47 -293 -174 -342 -355 -60 -220 1 -492 138 -616
126 -115 318 -160 512 -119 101 21 171 60 240 129 105 107 148 228 148 416 1
291 -129 482 -368 545 -73 19 -260 19 -328 0z m301 -189 c62 -31 115 -92 144
-165 20 -48 23 -74 23 -191 0 -126 -2 -139 -27 -193 -43 -90 -79 -130 -149
-162 -55 -24 -70 -27 -144 -23 -99 5 -157 34 -210 106 -58 78 -78 162 -73 300
3 100 8 125 31 175 45 98 86 139 171 169 69 25 166 18 234 -16z"/>
<path d="M7651 4864 c-234 -63 -365 -256 -364 -539 1 -354 199 -564 534 -565
90 0 210 28 281 67 103 56 194 185 229 323 20 79 18 279 -4 358 -51 190 -170
310 -352 357 -75 19 -251 19 -324 -1z m295 -184 c65 -32 127 -106 152 -184 26
-79 30 -240 8 -324 -40 -149 -150 -237 -294 -233 -88 2 -131 20 -193 81 -84
82 -103 139 -103 305 0 113 3 138 23 190 32 78 110 158 177 179 65 21 171 14
230 -14z"/>
<path d="M12318 4863 c-15 -10 -32 -29 -38 -43 -7 -17 -10 -185 -8 -513 l3
-487 28 -27 c22 -22 37 -28 73 -28 39 0 50 5 75 33 l29 32 0 486 c0 418 -2
489 -15 515 -26 49 -95 64 -147 32z"/>
<path d="M12796 4861 c-56 -38 -55 -27 -56 -544 0 -531 -1 -525 64 -547 43
-14 77 -5 108 27 l23 25 5 348 5 349 145 -221 c254 -389 324 -491 351 -511 40
-29 107 -33 147 -8 18 12 37 33 43 47 6 17 9 206 7 516 l-3 490 -28 24 c-16
14 -41 24 -59 24 -37 0 -84 -27 -94 -54 -5 -12 -10 -176 -13 -366 l-6 -345
-54 85 c-151 236 -421 637 -440 654 -31 28 -109 32 -145 7z"/>
<path d="M13938 4864 c-47 -25 -49 -51 -46 -566 l3 -476 24 -26 c48 -51 142
-40 170 20 6 15 11 83 11 163 l0 138 78 74 c42 41 85 80 94 87 16 13 26 1 101
-115 46 -70 110 -170 143 -222 32 -52 75 -112 95 -135 35 -38 40 -40 94 -40
50 0 60 3 81 27 14 16 24 41 24 58 0 52 -16 78 -251 414 -58 83 -109 156 -113
163 -8 14 -2 20 189 200 44 41 88 87 97 101 24 35 23 93 -1 122 -16 20 -28 24
-76 24 l-56 0 -132 -135 c-73 -75 -182 -188 -244 -251 -62 -64 -115 -114 -118
-111 -3 3 -5 99 -5 214 0 221 -6 254 -49 278 -28 14 -81 12 -113 -6z"/>
<path d="M5294 4861 c-85 -21 -84 -14 -84 -546 0 -492 1 -504 53 -538 41 -27
91 -22 129 12 l33 29 3 216 3 216 188 0 c195 0 244 8 261 40 17 32 12 85 -11
106 -19 17 -41 19 -230 22 l-210 3 3 137 3 137 248 5 c247 5 249 5 268 29 21
26 24 62 8 93 -23 43 -61 48 -356 47 -153 -1 -292 -4 -309 -8z"/>
<path d="M8612 4859 c-19 -6 -41 -23 -52 -42 -19 -31 -20 -53 -20 -488 0 -308
4 -466 11 -488 20 -56 43 -61 287 -61 121 0 243 5 272 10 161 31 270 133 327
308 22 67 26 95 27 217 0 102 -4 157 -17 202 -45 169 -154 289 -299 329 -66
19 -486 29 -536 13z m431 -183 c115 -27 181 -116 195 -263 16 -170 -13 -306
-82 -381 -59 -65 -88 -74 -253 -80 l-143 -5 0 372 0 371 113 0 c61 0 138 -6
170 -14z"/>
<path d="M10081 4832 c-20 -19 -31 -43 -36 -73 -3 -24 -5 -235 -3 -469 3 -472
4 -476 69 -499 41 -14 401 -15 487 -1 174 29 302 150 348 333 26 99 26 317 0
401 -44 148 -138 261 -253 307 -54 22 -74 24 -321 27 l-262 3 -29 -29z m521
-170 c98 -48 148 -159 148 -327 0 -152 -36 -263 -104 -323 -53 -46 -119 -62
-263 -62 l-123 0 0 371 0 371 148 -4 c129 -3 153 -6 194 -26z"/>
<path d="M11217 4844 c-15 -8 -32 -26 -37 -40 -6 -15 -10 -221 -10 -496 0
-423 2 -473 17 -499 33 -56 117 -63 164 -13 23 25 24 31 29 237 l5 212 74 -3
c41 -2 89 -9 106 -16 47 -20 96 -83 205 -261 54 -88 110 -169 124 -180 63 -46
158 -11 164 61 7 77 -129 300 -234 384 -24 19 -40 37 -36 41 4 4 31 14 60 24
124 40 196 139 196 269 0 123 -60 218 -173 270 -43 20 -64 21 -336 23 -246 2
-294 0 -318 -13z m528 -161 c11 -6 33 -25 49 -42 25 -26 30 -39 30 -85 1 -65
-21 -101 -80 -131 -33 -17 -63 -20 -201 -23 l-163 -4 0 149 c0 83 2 152 4 154
9 9 342 -7 361 -18z"/>
</g>
</svg>
